<mxfile host="app.diagrams.net" agent="Mozilla/5.0 (Windows NT 10.0; Win64; x64) AppleWebKit/537.36 (KHTML, like Gecko) Chrome/134.0.0.0 Safari/537.36 OPR/119.0.0.0 (Edition std-2)" version="27.2.0">
  <diagram name="PÃ¡gina-1" id="h6Lc9-Aa9NwLF9lz0sNI">
    <mxGraphModel grid="1" page="1" gridSize="10" guides="1" tooltips="1" connect="1" arrows="1" fold="1" pageScale="1" pageWidth="827" pageHeight="1169" math="0" shadow="0">
      <root>
        <mxCell id="0" />
        <mxCell id="1" parent="0" />
        <mxCell id="zAMTziLPSuE06uTlCKtZ-1" value="Usuario" style="shape=umlLifeline;perimeter=lifelinePerimeter;whiteSpace=wrap;container=1;dropTarget=0;collapsible=0;recursiveResize=0;outlineConnect=0;portConstraint=eastwest;newEdgeStyle={&quot;edgeStyle&quot;:&quot;elbowEdgeStyle&quot;,&quot;elbow&quot;:&quot;vertical&quot;,&quot;curved&quot;:0,&quot;rounded&quot;:0};participant=umlActor;verticalAlign=bottom;labelPosition=center;verticalLabelPosition=top;align=center;size=65;" vertex="1" parent="1">
          <mxGeometry x="1500" y="870" width="35" height="1313" as="geometry" />
        </mxCell>
        <mxCell id="zAMTziLPSuE06uTlCKtZ-2" value="CriarEditarInimigo&#xa;Page" style="shape=umlLifeline;perimeter=lifelinePerimeter;whiteSpace=wrap;container=1;dropTarget=0;collapsible=0;recursiveResize=0;outlineConnect=0;portConstraint=eastwest;newEdgeStyle={&quot;edgeStyle&quot;:&quot;elbowEdgeStyle&quot;,&quot;elbow&quot;:&quot;vertical&quot;,&quot;curved&quot;:0,&quot;rounded&quot;:0};size=65;" vertex="1" parent="1">
          <mxGeometry x="1670" y="870" width="150" height="1313" as="geometry" />
        </mxCell>
        <mxCell id="zAMTziLPSuE06uTlCKtZ-3" value="" style="points=[];perimeter=orthogonalPerimeter;outlineConnect=0;targetShapes=umlLifeline;portConstraint=eastwest;newEdgeStyle={&quot;edgeStyle&quot;:&quot;elbowEdgeStyle&quot;,&quot;elbow&quot;:&quot;vertical&quot;,&quot;curved&quot;:0,&quot;rounded&quot;:0}" vertex="1" parent="zAMTziLPSuE06uTlCKtZ-2">
          <mxGeometry x="70" y="107" width="10" height="1111" as="geometry" />
        </mxCell>
        <mxCell id="zAMTziLPSuE06uTlCKtZ-4" value="InimigosViewModel" style="shape=umlLifeline;perimeter=lifelinePerimeter;whiteSpace=wrap;container=1;dropTarget=0;collapsible=0;recursiveResize=0;outlineConnect=0;portConstraint=eastwest;newEdgeStyle={&quot;edgeStyle&quot;:&quot;elbowEdgeStyle&quot;,&quot;elbow&quot;:&quot;vertical&quot;,&quot;curved&quot;:0,&quot;rounded&quot;:0};size=65;" vertex="1" parent="1">
          <mxGeometry x="2002" y="870" width="150" height="1313" as="geometry" />
        </mxCell>
        <mxCell id="zAMTziLPSuE06uTlCKtZ-5" value="" style="points=[];perimeter=orthogonalPerimeter;outlineConnect=0;targetShapes=umlLifeline;portConstraint=eastwest;newEdgeStyle={&quot;edgeStyle&quot;:&quot;elbowEdgeStyle&quot;,&quot;elbow&quot;:&quot;vertical&quot;,&quot;curved&quot;:0,&quot;rounded&quot;:0}" vertex="1" parent="zAMTziLPSuE06uTlCKtZ-4">
          <mxGeometry x="70" y="159" width="10" height="997" as="geometry" />
        </mxCell>
        <mxCell id="zAMTziLPSuE06uTlCKtZ-6" value="InimigosFactoryImpl" style="shape=umlLifeline;perimeter=lifelinePerimeter;whiteSpace=wrap;container=1;dropTarget=0;collapsible=0;recursiveResize=0;outlineConnect=0;portConstraint=eastwest;newEdgeStyle={&quot;edgeStyle&quot;:&quot;elbowEdgeStyle&quot;,&quot;elbow&quot;:&quot;vertical&quot;,&quot;curved&quot;:0,&quot;rounded&quot;:0};size=65;" vertex="1" parent="1">
          <mxGeometry x="2251" y="870" width="150" height="1313" as="geometry" />
        </mxCell>
        <mxCell id="zAMTziLPSuE06uTlCKtZ-7" value="" style="points=[];perimeter=orthogonalPerimeter;outlineConnect=0;targetShapes=umlLifeline;portConstraint=eastwest;newEdgeStyle={&quot;edgeStyle&quot;:&quot;elbowEdgeStyle&quot;,&quot;elbow&quot;:&quot;vertical&quot;,&quot;curved&quot;:0,&quot;rounded&quot;:0}" vertex="1" parent="zAMTziLPSuE06uTlCKtZ-6">
          <mxGeometry x="70" y="211" width="10" height="730" as="geometry" />
        </mxCell>
        <mxCell id="zAMTziLPSuE06uTlCKtZ-10" value="IArmaRepository" style="shape=umlLifeline;perimeter=lifelinePerimeter;whiteSpace=wrap;container=1;dropTarget=0;collapsible=0;recursiveResize=0;outlineConnect=0;portConstraint=eastwest;newEdgeStyle={&quot;edgeStyle&quot;:&quot;elbowEdgeStyle&quot;,&quot;elbow&quot;:&quot;vertical&quot;,&quot;curved&quot;:0,&quot;rounded&quot;:0};size=65;" vertex="1" parent="1">
          <mxGeometry x="2851" y="870" width="150" height="1313" as="geometry" />
        </mxCell>
        <mxCell id="zAMTziLPSuE06uTlCKtZ-11" value="IArmaduraRepository" style="shape=umlLifeline;perimeter=lifelinePerimeter;whiteSpace=wrap;container=1;dropTarget=0;collapsible=0;recursiveResize=0;outlineConnect=0;portConstraint=eastwest;newEdgeStyle={&quot;edgeStyle&quot;:&quot;elbowEdgeStyle&quot;,&quot;elbow&quot;:&quot;vertical&quot;,&quot;curved&quot;:0,&quot;rounded&quot;:0};size=65;" vertex="1" parent="1">
          <mxGeometry x="3051" y="870" width="150" height="1313" as="geometry" />
        </mxCell>
        <mxCell id="zAMTziLPSuE06uTlCKtZ-12" value="IHabilidadeRepository" style="shape=umlLifeline;perimeter=lifelinePerimeter;whiteSpace=wrap;container=1;dropTarget=0;collapsible=0;recursiveResize=0;outlineConnect=0;portConstraint=eastwest;newEdgeStyle={&quot;edgeStyle&quot;:&quot;elbowEdgeStyle&quot;,&quot;elbow&quot;:&quot;vertical&quot;,&quot;curved&quot;:0,&quot;rounded&quot;:0};size=65;" vertex="1" parent="1">
          <mxGeometry x="3251" y="870" width="150" height="1313" as="geometry" />
        </mxCell>
        <mxCell id="zAMTziLPSuE06uTlCKtZ-13" value="IInimigo&#xa;Repository" style="shape=umlLifeline;perimeter=lifelinePerimeter;whiteSpace=wrap;container=1;dropTarget=0;collapsible=0;recursiveResize=0;outlineConnect=0;portConstraint=eastwest;newEdgeStyle={&quot;edgeStyle&quot;:&quot;elbowEdgeStyle&quot;,&quot;elbow&quot;:&quot;vertical&quot;,&quot;curved&quot;:0,&quot;rounded&quot;:0};size=65;" vertex="1" parent="1">
          <mxGeometry x="3637" y="870" width="150" height="1313" as="geometry" />
        </mxCell>
        <mxCell id="zAMTziLPSuE06uTlCKtZ-14" value="" style="points=[];perimeter=orthogonalPerimeter;outlineConnect=0;targetShapes=umlLifeline;portConstraint=eastwest;newEdgeStyle={&quot;edgeStyle&quot;:&quot;elbowEdgeStyle&quot;,&quot;elbow&quot;:&quot;vertical&quot;,&quot;curved&quot;:0,&quot;rounded&quot;:0}" vertex="1" parent="zAMTziLPSuE06uTlCKtZ-13">
          <mxGeometry x="70" y="1003" width="10" height="97" as="geometry" />
        </mxCell>
        <mxCell id="zAMTziLPSuE06uTlCKtZ-15" value="opt" style="shape=umlFrame;dashed=1;pointerEvents=0;dropTarget=0;strokeColor=#B3B3B3;height=20;width=30" vertex="1" parent="1">
          <mxGeometry x="2311" y="1309" width="626" height="150" as="geometry" />
        </mxCell>
        <mxCell id="zAMTziLPSuE06uTlCKtZ-16" value="[Se armaId for fornecido]" style="text;strokeColor=none;fillColor=none;align=center;verticalAlign=middle;whiteSpace=wrap;" vertex="1" parent="zAMTziLPSuE06uTlCKtZ-15">
          <mxGeometry x="30" width="596" height="20" as="geometry" />
        </mxCell>
        <mxCell id="zAMTziLPSuE06uTlCKtZ-17" value="opt" style="shape=umlFrame;dashed=1;pointerEvents=0;dropTarget=0;strokeColor=#B3B3B3;height=20;width=30" vertex="1" parent="1">
          <mxGeometry x="2311" y="1469" width="826" height="150" as="geometry" />
        </mxCell>
        <mxCell id="zAMTziLPSuE06uTlCKtZ-18" value="[Se armaduraId for fornecido]" style="text;strokeColor=none;fillColor=none;align=center;verticalAlign=middle;whiteSpace=wrap;" vertex="1" parent="zAMTziLPSuE06uTlCKtZ-17">
          <mxGeometry x="30" width="796" height="20" as="geometry" />
        </mxCell>
        <mxCell id="zAMTziLPSuE06uTlCKtZ-19" value="loop" style="shape=umlFrame;dashed=1;pointerEvents=0;dropTarget=0;strokeColor=#B3B3B3;height=20;width=40" vertex="1" parent="1">
          <mxGeometry x="2311" y="1629" width="1026" height="150" as="geometry" />
        </mxCell>
        <mxCell id="zAMTziLPSuE06uTlCKtZ-20" value="[Para cada habilidadeId]" style="text;strokeColor=none;fillColor=none;align=center;verticalAlign=middle;whiteSpace=wrap;" vertex="1" parent="zAMTziLPSuE06uTlCKtZ-19">
          <mxGeometry x="40" width="986" height="20" as="geometry" />
        </mxCell>
        <mxCell id="zAMTziLPSuE06uTlCKtZ-21" value="preencheDados e clica Salvar" style="verticalAlign=bottom;edgeStyle=elbowEdgeStyle;elbow=vertical;curved=0;rounded=0;endArrow=block;" edge="1" parent="1" source="zAMTziLPSuE06uTlCKtZ-1" target="zAMTziLPSuE06uTlCKtZ-3">
          <mxGeometry relative="1" as="geometry">
            <Array as="points">
              <mxPoint x="1620" y="980" />
            </Array>
          </mxGeometry>
        </mxCell>
        <mxCell id="zAMTziLPSuE06uTlCKtZ-22" value="criarOuAtualizarInimigo(params)" style="verticalAlign=bottom;edgeStyle=elbowEdgeStyle;elbow=vertical;curved=0;rounded=0;endArrow=block;" edge="1" parent="1" source="zAMTziLPSuE06uTlCKtZ-3" target="zAMTziLPSuE06uTlCKtZ-5">
          <mxGeometry relative="1" as="geometry">
            <Array as="points">
              <mxPoint x="1922" y="1029" />
            </Array>
          </mxGeometry>
        </mxCell>
        <mxCell id="zAMTziLPSuE06uTlCKtZ-23" value="criarInimigo(params)" style="verticalAlign=bottom;edgeStyle=elbowEdgeStyle;elbow=vertical;curved=0;rounded=0;endArrow=block;" edge="1" parent="1" source="zAMTziLPSuE06uTlCKtZ-5" target="zAMTziLPSuE06uTlCKtZ-7">
          <mxGeometry relative="1" as="geometry">
            <Array as="points">
              <mxPoint x="2212" y="1081" />
            </Array>
          </mxGeometry>
        </mxCell>
        <mxCell id="zAMTziLPSuE06uTlCKtZ-28" value="getById(armaId)" style="verticalAlign=bottom;edgeStyle=elbowEdgeStyle;elbow=vertical;curved=0;rounded=0;endArrow=block;" edge="1" parent="1" source="zAMTziLPSuE06uTlCKtZ-7" target="zAMTziLPSuE06uTlCKtZ-10">
          <mxGeometry relative="1" as="geometry">
            <Array as="points">
              <mxPoint x="2637" y="1387" />
            </Array>
          </mxGeometry>
        </mxCell>
        <mxCell id="zAMTziLPSuE06uTlCKtZ-29" value="arma" style="verticalAlign=bottom;edgeStyle=elbowEdgeStyle;elbow=vertical;curved=0;rounded=0;dashed=1;dashPattern=2 3;endArrow=block;" edge="1" parent="1" source="zAMTziLPSuE06uTlCKtZ-10" target="zAMTziLPSuE06uTlCKtZ-7">
          <mxGeometry relative="1" as="geometry">
            <Array as="points">
              <mxPoint x="2640" y="1439" />
            </Array>
          </mxGeometry>
        </mxCell>
        <mxCell id="zAMTziLPSuE06uTlCKtZ-30" value="getById(armaduraId)" style="verticalAlign=bottom;edgeStyle=elbowEdgeStyle;elbow=vertical;curved=0;rounded=0;endArrow=block;" edge="1" parent="1" source="zAMTziLPSuE06uTlCKtZ-7" target="zAMTziLPSuE06uTlCKtZ-11">
          <mxGeometry relative="1" as="geometry">
            <Array as="points">
              <mxPoint x="2737" y="1547" />
            </Array>
          </mxGeometry>
        </mxCell>
        <mxCell id="zAMTziLPSuE06uTlCKtZ-31" value="armadura" style="verticalAlign=bottom;edgeStyle=elbowEdgeStyle;elbow=vertical;curved=0;rounded=0;dashed=1;dashPattern=2 3;endArrow=block;" edge="1" parent="1" source="zAMTziLPSuE06uTlCKtZ-11" target="zAMTziLPSuE06uTlCKtZ-7">
          <mxGeometry relative="1" as="geometry">
            <Array as="points">
              <mxPoint x="2740" y="1599" />
            </Array>
          </mxGeometry>
        </mxCell>
        <mxCell id="zAMTziLPSuE06uTlCKtZ-32" value="getById(habilidadeId)" style="verticalAlign=bottom;edgeStyle=elbowEdgeStyle;elbow=vertical;curved=0;rounded=0;endArrow=block;" edge="1" parent="1" source="zAMTziLPSuE06uTlCKtZ-7" target="zAMTziLPSuE06uTlCKtZ-12">
          <mxGeometry relative="1" as="geometry">
            <Array as="points">
              <mxPoint x="2837" y="1707" />
            </Array>
          </mxGeometry>
        </mxCell>
        <mxCell id="zAMTziLPSuE06uTlCKtZ-33" value="habilidade" style="verticalAlign=bottom;edgeStyle=elbowEdgeStyle;elbow=vertical;curved=0;rounded=0;dashed=1;dashPattern=2 3;endArrow=block;" edge="1" parent="1" source="zAMTziLPSuE06uTlCKtZ-12" target="zAMTziLPSuE06uTlCKtZ-7">
          <mxGeometry relative="1" as="geometry">
            <Array as="points">
              <mxPoint x="2840" y="1759" />
            </Array>
          </mxGeometry>
        </mxCell>
        <mxCell id="zAMTziLPSuE06uTlCKtZ-34" value="personagem" style="verticalAlign=bottom;edgeStyle=elbowEdgeStyle;elbow=vertical;curved=0;rounded=0;dashed=1;dashPattern=2 3;endArrow=block;" edge="1" parent="1" source="zAMTziLPSuE06uTlCKtZ-6" target="zAMTziLPSuE06uTlCKtZ-5">
          <mxGeometry relative="1" as="geometry">
            <Array as="points">
              <mxPoint x="2213" y="1821" />
            </Array>
          </mxGeometry>
        </mxCell>
        <mxCell id="zAMTziLPSuE06uTlCKtZ-35" value="save(Inimigo)" style="verticalAlign=bottom;edgeStyle=elbowEdgeStyle;elbow=horizontal;curved=0;rounded=0;endArrow=block;" edge="1" parent="1" source="zAMTziLPSuE06uTlCKtZ-5" target="zAMTziLPSuE06uTlCKtZ-14">
          <mxGeometry relative="1" as="geometry">
            <Array as="points">
              <mxPoint x="2905" y="1873" />
            </Array>
          </mxGeometry>
        </mxCell>
        <mxCell id="zAMTziLPSuE06uTlCKtZ-36" value="void" style="verticalAlign=bottom;edgeStyle=elbowEdgeStyle;elbow=vertical;curved=0;rounded=0;dashed=1;dashPattern=2 3;endArrow=block;" edge="1" parent="1" source="zAMTziLPSuE06uTlCKtZ-13" target="zAMTziLPSuE06uTlCKtZ-5">
          <mxGeometry relative="1" as="geometry">
            <Array as="points">
              <mxPoint x="2906" y="1974" />
            </Array>
          </mxGeometry>
        </mxCell>
        <mxCell id="zAMTziLPSuE06uTlCKtZ-37" value="success" style="verticalAlign=bottom;edgeStyle=elbowEdgeStyle;elbow=vertical;curved=0;rounded=0;dashed=1;dashPattern=2 3;endArrow=block;" edge="1" parent="1" source="zAMTziLPSuE06uTlCKtZ-5" target="zAMTziLPSuE06uTlCKtZ-3">
          <mxGeometry relative="1" as="geometry">
            <Array as="points">
              <mxPoint x="1923" y="2026" />
            </Array>
          </mxGeometry>
        </mxCell>
        <mxCell id="zAMTziLPSuE06uTlCKtZ-38" value="Exibe confirmaÃ§Ã£o" style="verticalAlign=bottom;edgeStyle=elbowEdgeStyle;elbow=vertical;curved=0;rounded=0;dashed=1;dashPattern=2 3;endArrow=block;" edge="1" parent="1" source="zAMTziLPSuE06uTlCKtZ-3" target="zAMTziLPSuE06uTlCKtZ-1">
          <mxGeometry relative="1" as="geometry">
            <Array as="points">
              <mxPoint x="1670" y="2078" />
            </Array>
          </mxGeometry>
        </mxCell>
      </root>
    </mxGraphModel>
  </diagram>
</mxfile>
